{
    "asset" : {
        "generator" : "Khronos glTF Blender I/O v1.1.46",
        "version" : "2.0"
    },
    "scene" : 0,
    "scenes" : [
        {
            "name" : "Scene",
            "nodes" : [
                0,
                1,
                3,
                4
            ]
        }
    ],
    "nodes" : [
        {
            "name" : "Light",
            "rotation" : [
                0.16907575726509094,
                0.7558803558349609,
                -0.27217137813568115,
                0.570947527885437
            ],
            "translation" : [
                1.1344633102416992,
                1.2223539352416992,
                0.5876206159591675
            ]
        },
        {
            "name" : "Camera",
            "rotation" : [
                -0.5407416224479675,
                0.04186064749956131,
                -0.02695523574948311,
                -0.839713990688324
            ],
            "translation" : [
                0.0028005577623844147,
                0.1395915001630783,
                0.3289240598678589
            ]
        },
        {
            "mesh" : 0,
            "name" : "Icing"
        },
        {
            "children" : [
                2
            ],
            "mesh" : 1,
            "name" : "Donut"
        },
        {
            "mesh" : 2,
            "name" : "Plane",
            "translation" : [
                0.01214508805423975,
                -0.02174108475446701,
                -0.06343990564346313
            ]
        }
    ],
    "materials" : [
        {
            "doubleSided" : true,
            "emissiveFactor" : [
                0,
                0,
                0
            ],
            "name" : "Material.002",
            "pbrMetallicRoughness" : {
                "baseColorFactor" : [
                    0.8000000715255737,
                    0.20309928059577942,
                    0.6292890310287476,
                    1
                ],
                "metallicFactor" : 0,
                "roughnessFactor" : 0.45652174949645996
            }
        },
        {
            "doubleSided" : true,
            "emissiveFactor" : [
                0,
                0,
                0
            ],
            "name" : "Material.003",
            "pbrMetallicRoughness" : {
                "baseColorFactor" : [
                    0.8000000715255737,
                    0.7882645130157471,
                    0.2518708109855652,
                    1
                ],
                "metallicFactor" : 0,
                "roughnessFactor" : 0.5
            }
        },
        {
            "doubleSided" : true,
            "emissiveFactor" : [
                0,
                0,
                0
            ],
            "name" : "Material.001",
            "pbrMetallicRoughness" : {
                "baseColorFactor" : [
                    0.0930635929107666,
                    0.20727573335170746,
                    0.8000000715255737,
                    1
                ],
                "metallicFactor" : 0,
                "roughnessFactor" : 0.5
            }
        }
    ],
    "meshes" : [
        {
            "name" : "Torus.001",
            "primitives" : [
                {
                    "attributes" : {
                        "POSITION" : 0,
                        "NORMAL" : 1,
                        "TEXCOORD_0" : 2
                    },
                    "indices" : 3,
                    "material" : 0
                }
            ]
        },
        {
            "name" : "Torus",
            "primitives" : [
                {
                    "attributes" : {
                        "POSITION" : 4,
                        "NORMAL" : 5,
                        "TEXCOORD_0" : 6
                    },
                    "indices" : 7,
                    "material" : 1
                }
            ]
        },
        {
            "name" : "Plane",
            "primitives" : [
                {
                    "attributes" : {
                        "POSITION" : 8,
                        "NORMAL" : 9,
                        "TEXCOORD_0" : 10
                    },
                    "indices" : 11,
                    "material" : 2
                }
            ]
        }
    ],
    "accessors" : [
        {
            "bufferView" : 0,
            "componentType" : 5126,
            "count" : 4955,
            "max" : [
                0.07471535354852676,
                0.028897186741232872,
                0.07256165891885757
            ],
            "min" : [
                -0.07491648942232132,
                -0.004786415956914425,
                -0.07443481683731079
            ],
            "type" : "VEC3"
        },
        {
            "bufferView" : 1,
            "componentType" : 5126,
            "count" : 4955,
            "type" : "VEC3"
        },
        {
            "bufferView" : 2,
            "componentType" : 5126,
            "count" : 4955,
            "type" : "VEC2"
        },
        {
            "bufferView" : 3,
            "componentType" : 5123,
            "count" : 24720,
            "type" : "SCALAR"
        },
        {
            "bufferView" : 4,
            "componentType" : 5126,
            "count" : 377,
            "max" : [
                0.07452264428138733,
                0.028295328840613365,
                0.08065702766180038
            ],
            "min" : [
                -0.07797802984714508,
                -0.03024676814675331,
                -0.07770248502492905
            ],
            "type" : "VEC3"
        },
        {
            "bufferView" : 5,
            "componentType" : 5126,
            "count" : 377,
            "type" : "VEC3"
        },
        {
            "bufferView" : 6,
            "componentType" : 5126,
            "count" : 377,
            "type" : "VEC2"
        },
        {
            "bufferView" : 7,
            "componentType" : 5123,
            "count" : 2016,
            "type" : "SCALAR"
        },
        {
            "bufferView" : 8,
            "componentType" : 5126,
            "count" : 4,
            "max" : [
                1,
                0,
                1
            ],
            "min" : [
                -1,
                0,
                -1
            ],
            "type" : "VEC3"
        },
        {
            "bufferView" : 9,
            "componentType" : 5126,
            "count" : 4,
            "type" : "VEC3"
        },
        {
            "bufferView" : 10,
            "componentType" : 5126,
            "count" : 4,
            "type" : "VEC2"
        },
        {
            "bufferView" : 11,
            "componentType" : 5123,
            "count" : 6,
            "type" : "SCALAR"
        }
    ],
    "bufferViews" : [
        {
            "buffer" : 0,
            "byteLength" : 59460,
            "byteOffset" : 0
        },
        {
            "buffer" : 0,
            "byteLength" : 59460,
            "byteOffset" : 59460
        },
        {
            "buffer" : 0,
            "byteLength" : 39640,
            "byteOffset" : 118920
        },
        {
            "buffer" : 0,
            "byteLength" : 49440,
            "byteOffset" : 158560
        },
        {
            "buffer" : 0,
            "byteLength" : 4524,
            "byteOffset" : 208000
        },
        {
            "buffer" : 0,
            "byteLength" : 4524,
            "byteOffset" : 212524
        },
        {
            "buffer" : 0,
            "byteLength" : 3016,
            "byteOffset" : 217048
        },
        {
            "buffer" : 0,
            "byteLength" : 4032,
            "byteOffset" : 220064
        },
        {
            "buffer" : 0,
            "byteLength" : 48,
            "byteOffset" : 224096
        },
        {
            "buffer" : 0,
            "byteLength" : 48,
            "byteOffset" : 224144
        },
        {
            "buffer" : 0,
            "byteLength" : 32,
            "byteOffset" : 224192
        },
        {
            "buffer" : 0,
            "byteLength" : 12,
            "byteOffset" : 224224
        }
    ],
    "buffers" : [
        {
            "byteLength" : 224236,
            "uri" : "data:application/octet-stream;base64,"
        }
    ]
}
